# xmcd
#
# Track frame offsets:
#	150
#	8982
#	19462
#	31014
#	41368
#	51677
#	62321
#	73522
#	82138
#	93184
#	102488
#	117725
#	126363
#	135510
#	147111
#	157735
#	166973
#	178221
#	188920
#	197669
#	207305
#	217540
#	225907
#	237004
#	245528
#	257225
#
# Disc length: 3579 seconds
#
# Revision: 0
# Processed by: cddbd v1.5.2PL0 Copyright (c) Steve Scherf et al.
# Submitted via: EasyCDDAExtractor 16.0.1.1
#
DISCID=670df91a
DTITLE=The Buckaroos - America's Most Wanted Band -67 and Country Music's Most W
DTITLE=anted Band -67
DYEAR=1967
DGENRE=Country
TTITLE0=The Buckaroos - The Happy-Go-Lucky-Guitar
TTITLE1=The Buckaroos - It Takes A Lot Of You For Me
TTITLE2=The Buckaroos - Neosho Waltz
TTITLE3=The Buckaroos - You'll Never Miss The Water (Till The Well Runs Dry)
TTITLE4=The Buckaroos - The Way That I Love You
TTITLE5=The Buckaroos - Round Hole Guitar
TTITLE6=The Buckaroos - Happy Son Of A Gun
TTITLE7=The Buckaroos - Steel Guitar Polka
TTITLE8=The Buckaroos - Something To Remember You By
TTITLE9=The Buckaroos - Seven Come Eleven
TTITLE10=The Buckaroos - Out Of My Mind
TTITLE11=The Buckaroos - Tumwater Breakdown
TTITLE12=The Buckaroos - Buckaroo
TTITLE13=The Buckaroos - Faded Love
TTITLE14=The Buckaroos - Round Hole Guitar
TTITLE15=The Buckaroos - Seven Come Eleven
TTITLE16=The Buckaroos - Country Rag
TTITLE17=The Buckaroos - It Takes A Lot Of You For Me
TTITLE18=The Buckaroos - The Happy-Go-Lucky-Guitar
TTITLE19=The Buckaroos - Orange Blossom Special
TTITLE20=The Buckaroos - The Way That I Love You
TTITLE21=The Buckaroos - Steel Guitar Rag
TTITLE22=The Buckaroos and Buck Owens - The House Down The Block
TTITLE23=The Buckaroos - Tumwater Breakdown
TTITLE24=The Buckaroos - Neosho Waltz
TTITLE25=The Buckaroos - Happy Son Of A Gun
EXTD=
EXTT0=
EXTT1=
EXTT2=
EXTT3=
EXTT4=
EXTT5=
EXTT6=
EXTT7=
EXTT8=
EXTT9=
EXTT10=
EXTT11=
EXTT12=
EXTT13=
EXTT14=
EXTT15=
EXTT16=
EXTT17=
EXTT18=
EXTT19=
EXTT20=
EXTT21=
EXTT22=
EXTT23=
EXTT24=
EXTT25=
PLAYORDER=
